M48
; DRILL file {KiCad 9.0.7} date 2026-05-19T04:47:18-0700
; FORMAT={-:-/ absolute / metric / decimal}
; #@! TF.CreationDate,2026-05-19T04:47:18-07:00
; #@! TF.GenerationSoftware,Kicad,Pcbnew,9.0.7
; #@! TF.FileFunction,Plated,1,2,PTH
FMAT,2
METRIC
; #@! TA.AperFunction,Plated,PTH,ComponentDrill
T1C0.025
; #@! TA.AperFunction,Plated,PTH,ComponentDrill
T2C0.356
; #@! TA.AperFunction,Plated,PTH,ComponentDrill
T3C0.800
; #@! TA.AperFunction,Plated,PTH,ComponentDrill
T4C0.864
; #@! TA.AperFunction,Plated,PTH,ComponentDrill
T5C0.914
; #@! TA.AperFunction,Plated,PTH,ComponentDrill
T6C1.040
; #@! TA.AperFunction,Plated,PTH,ComponentDrill
T7C1.100
; #@! TA.AperFunction,Plated,PTH,ComponentDrill
T8C1.194
; #@! TA.AperFunction,Plated,PTH,ComponentDrill
T9C1.549
%
G90
G05
T1
X68.234Y-128.75
X71.634Y-133.55
X74.534Y-128.75
T2
X133.58Y-135.27
X133.58Y-147.97
T3
X91.8Y-95.45
X91.8Y-97.99
X91.8Y-100.53
X91.8Y-103.07
X91.8Y-105.61
X91.8Y-108.15
X91.8Y-110.69
X91.8Y-113.23
X104.5Y-95.45
X104.5Y-97.99
X104.5Y-100.53
X104.5Y-103.07
X104.5Y-105.61
X104.5Y-108.15
X104.5Y-110.69
X104.5Y-113.23
X110.55Y-128.77
X112.55Y-128.77
X118.39Y-95.24
X118.39Y-97.78
X118.39Y-100.32
X118.39Y-102.86
X118.39Y-105.4
X118.39Y-107.94
X118.39Y-110.48
X118.39Y-113.02
X131.09Y-95.24
X131.09Y-97.78
X131.09Y-100.32
X131.09Y-102.86
X131.09Y-105.4
X131.09Y-107.94
X131.09Y-110.48
X131.09Y-113.02
T4
X86.214Y-129.19
X91.7Y-129.19
T5
X157.095Y-130.6
X162.099Y-130.6
T6
X148.68Y-68.83
X148.68Y-71.37
X148.68Y-73.91
X148.68Y-76.45
X148.68Y-78.99
X148.68Y-81.53
X148.68Y-84.07
X148.68Y-86.61
X148.68Y-89.15
X148.68Y-91.69
X148.68Y-94.23
X148.68Y-96.77
X148.68Y-99.31
X148.68Y-101.85
X148.68Y-104.39
X148.68Y-106.93
X148.68Y-109.47
X148.68Y-112.01
X148.68Y-114.55
X174.08Y-68.83
X174.08Y-71.37
X174.08Y-73.91
X174.08Y-76.45
X174.08Y-78.99
X174.08Y-81.53
X174.08Y-84.07
X174.08Y-86.61
X174.08Y-89.15
X174.08Y-91.69
X174.08Y-94.23
X174.08Y-96.77
X174.08Y-99.31
X174.08Y-101.85
X174.08Y-104.39
X174.08Y-106.93
X174.08Y-109.47
X174.08Y-112.01
X174.08Y-114.55
T7
X220.01Y-63.3
X222.55Y-63.3
X227.6Y-63.3
X230.14Y-63.3
X235.19Y-63.3
X237.73Y-63.3
X242.78Y-63.3
X245.32Y-63.3
T8
X128.283Y-128.14
X129.985Y-128.14
X131.686Y-128.14
X133.388Y-128.14
X135.09Y-128.14
T9
X105.9Y-136.139
X105.9Y-158.034
M30
